<?xml version="1.0" encoding="UTF-8"?>
<svg id="Layer_1" data-name="Layer 1" xmlns="http://www.w3.org/2000/svg" viewBox="0 0 312.21 402.32">
  <defs>
    <style>
      .cls-1 {
        fill: #fff;
      }
    </style>
  </defs>
  <path class="cls-1" d="M141.79,393.37c-8.57-8.03-17.79-20.73-25.4-30.11C76.07,313.57,4.52,227.64.37,163.28-10.07,1.53,204.64-61,288.78,72.87c63.56,101.14-15.83,193.09-76.46,270.37-10.82,13.8-36.42,49.33-49.82,57.18-8.71,5.11-14.34-1.09-20.72-7.06h.01ZM164.37,372.79l2.98-1.52c54.92-80.2,170.71-178.54,106.83-284.79C219.54-4.41,85.7-4.35,34.85,89.77c-49.66,91.92,27.36,170.68,78.13,239.92l34.4,43.1v-77h-27.5c-4.17,0-15.41-9.46-17.94-13.06-4.06-5.81-5.1-13.49-5.55-20.45-3.63-55.29,2.74-114.35-.06-170.04,2.49-38.49,33.03-32.57,61.55-32.65,24.46-.06,52.24-5.32,59.41,25.78l-.03,184.8c-.2,10.43-15.51,25.61-25.39,25.61h-26c-.11,0-1.5,1.39-1.5,1.5v75.5h0ZM195.01,273.44c1.31-1.4,2.25-3.63,3.14-5.36,2.19-59.58,1.66-120.19.27-179.85-2.33-6.78-7.7-10.49-14.67-11.33-11.99-1.44-38.63-1.19-50.92-.15-12.01,1.02-17.48,6.5-18.5,18.5-4.53,53.02,3.49,112.38,0,166.07.55,7.76,3.9,15.45,12.51,16.49,12.48,1.5,46.37,1.34,59.02-.02,3.22-.35,6.94-2,9.15-4.35h0Z"/>
  <path class="cls-1" d="M151.13,219.05c35.76-5.32,37.1,41.72,7.63,44.63-30.01,2.96-34.75-40.6-7.63-44.63Z"/>
  <path class="cls-1" d="M139.71,196.45c-21.69-20.76,13.45-53.45,34.18-30.68,19.61,21.55-13.18,50.78-34.18,30.68Z"/>
  <path class="cls-1" d="M152.12,98.05c34.26-4.96,36.5,43.62,4.11,43.13-28.86-.44-30.23-39.35-4.11-43.13Z"/>
</svg>